Coordinates
version=1
nRows=12
nColumns=42
inDegrees=yes

Units are S.I. units (second, meters, Newtons, ...)
If the header above contains a line with 'inDegrees', this indicates whether rotational values are in degrees (yes) or radians (no).

endheader
time	pelvis_tilt	pelvis_list	pelvis_rotation	pelvis_tx	pelvis_ty	pelvis_tz	hip_flexion_r	hip_adduction_r	hip_rotation_r	knee_angle_r	knee_adduction_r	knee_angle_r_beta	ankle_angle_r	subtalar_angle_r	mtp_angle_r	hip_flexion_l	hip_adduction_l	hip_rotation_l	knee_angle_l	knee_adduction_l	knee_angle_l_beta	ankle_angle_l	subtalar_angle_l	mtp_angle_l	lumbar_extension	lumbar_bending	lumbar_rotation	arm_flex_r	arm_add_r	arm_rot_r	elbow_flex_r	pro_sup_r	wrist_flex_r	wrist_dev_r	arm_flex_l	arm_add_l	arm_rot_l	elbow_flex_l	pro_sup_l	wrist_flex_l	wrist_dev_l
      0.00000000	      7.52381289	      2.38035225	     -4.75504156	     -2.81851360	      0.83640002	      0.11474969	    -20.74777020	     -0.21531861	    -23.19640245	     32.98762521	    -13.13975387	      0.57574267	      8.22314513	     24.38831195	     -9.54669369	     24.34111787	      6.99208336	     -4.12756642	     31.25472888	     -5.16454340	      0.54549793	      6.80895184	     -5.77942750	     -9.54669369	    -27.30273163	     -5.90931571	      7.33466809	     15.66061751	    -15.88285842	      5.65824399	     51.12333086	     90.00000001	      0.00000000	      0.00000000	     -7.42800180	    -11.70785346	     18.66892337	     26.32552782	     90.00000001	      0.00000000	      0.00000000
      0.01000000	      7.88232246	      2.84046289	     -4.57534193	     -2.80472990	      0.83831614	      0.11363506	    -20.08688242	     -1.17557507	    -23.93515221	     35.75629196	    -13.79290078	      0.62406502	      4.73649413	     23.71088614	     -9.52949734	     23.42647542	      7.72664816	     -3.88620039	     32.23141206	     -4.92851679	      0.56254426	      7.67959929	     -6.04065129	     -9.52949734	    -27.74704108	     -6.33249327	      7.00113391	     15.28628165	    -15.79044643	      5.64860011	     50.30682686	     90.00000001	      0.00000000	      0.00000000	     -6.60273626	    -11.83916467	     18.77999097	     26.47601687	     90.00000001	      0.00000000	      0.00000000
      0.02000000	      7.66458604	      3.26630003	     -4.12990574	     -2.79153693	      0.83974967	      0.11254345	    -18.40016847	     -1.80033310	    -24.51771491	     39.06778039	    -14.60309872	      0.68186140	      0.36548343	     19.67368985	     -9.39598498	     22.94195939	      8.55313079	     -2.94109943	     32.73515178	     -4.65926256	      0.57133618	      8.08969080	     -7.40781464	     -9.39598498	    -27.57506817	     -6.65721759	      6.58879812	     14.81541799	    -15.51892403	      5.53034482	     49.04706565	     90.00000001	      0.00000000	      0.00000000	     -5.60595607	    -12.15844164	     19.28490177	     26.56118636	     90.00000001	      0.00000000	      0.00000000
      0.03000000	      7.67779461	      3.63830844	     -3.78733454	     -2.77840577	      0.84183189	      0.11133926	    -16.82561303	     -2.59357121	    -25.33083779	     42.37609905	    -15.44547145	      0.73960245	     -3.21473080	     17.06272449	     -9.30401870	     21.97327146	      9.27166409	     -2.63824299	     32.80785015	     -4.62381777	      0.57260501	      8.85828154	     -7.57896417	     -9.30401870	    -27.65670793	     -6.88715651	      6.21624625	     14.43882464	    -15.37722555	      5.62068215	     47.82716853	     90.00000001	      0.00000000	      0.00000000	     -4.60824013	    -12.29851051	     19.16337401	     26.80076795	     90.00000001	      0.00000000	      0.00000000
      0.04000000	      7.76196826	      4.01571132	     -3.55658412	     -2.76533196	      0.84426344	      0.11026783	    -15.16566179	     -3.46292601	    -26.45553933	     45.56940527	    -16.65360906	      0.79533616	     -6.13522644	     15.67686547	     -9.28099978	     20.69583094	      9.95233454	     -2.54229422	     32.45985132	     -4.65055148	      0.56653128	      9.87344091	     -7.40456066	     -9.28099978	    -27.79262291	     -7.13372223	      5.95102361	     14.01793816	    -15.31651569	      5.80924994	     46.66352551	     90.00000001	      0.00000000	      0.00000000	     -3.56024363	    -12.42255859	     19.01860804	     27.12257787	     90.00000001	      0.00000000	      0.00000000
      0.05000000	      7.70587341	      4.10743096	     -3.20803506	     -2.75267352	      0.84678517	      0.10909961	    -13.23461648	     -3.85056428	    -26.36610602	     49.06531963	    -16.98734961	      0.85635138	     -8.50678897	     10.49192624	     -9.17089385	     19.59248065	     10.33943016	     -2.46430645	     32.15135907	     -4.84067017	      0.56114707	     10.68974718	     -6.81835029	     -9.17089385	    -27.81595581	     -6.99326313	      5.62301500	     13.74346249	    -15.22862306	      6.05416446	     45.28315414	     90.00000001	      0.00000000	      0.00000000	     -2.53152740	    -12.39107335	     18.26564473	     27.49858919	     90.00000001	      0.00000000	      0.00000000
      0.06000000	      7.75046340	      4.19623441	     -2.97545362	     -2.73994614	      0.84963707	      0.10811582	    -11.32730269	     -4.30411805	    -26.58907963	     52.27187465	    -17.55522459	      0.91231632	    -10.01195054	      6.91526308	     -9.04044481	     18.17442503	     10.67223842	     -2.39540688	     31.48599816	     -4.97196101	      0.54953434	     11.65187578	     -6.20058347	     -9.04044481	    -27.90908869	     -6.86776873	      5.40042772	     13.38712560	    -15.22169041	      6.37064216	     44.04548920	     90.00000001	      0.00000000	      0.00000000	     -1.48098957	    -12.33237829	     17.39528246	     27.95796137	     90.00000001	      0.00000000	      0.00000000
      0.07000000	      7.77375314	      4.20442250	     -2.75956564	     -2.72732819	      0.85259351	      0.10725392	     -9.31168022	     -4.63575734	    -26.67302750	     55.34007932	    -17.98735918	      0.96586659	    -10.50969572	      3.53165395	     -8.94670166	     16.72001297	     10.89731966	     -2.25007574	     30.71973943	     -5.09469827	      0.53616060	     12.45579639	     -5.57152571	     -8.94670166	    -27.97682073	     -6.64536407	      5.18467475	     13.05610821	    -15.20058891	      6.68161599	     42.78673443	     90.00000001	      0.00000000	      0.00000000	     -0.47489137	    -12.32114576	     16.60690118	     28.59170445	     90.00000001	      0.00000000	      0.00000000
      0.08000000	      7.86575523	      4.19875273	     -2.50850185	     -2.71459957	      0.85571741	      0.10640989	     -7.37327428	     -4.97439268	    -27.18357211	     57.99476981	    -18.62596874	      1.01219968	    -10.08238674	      1.43169589	     -8.90432168	     15.05431211	     11.10161846	     -1.88900702	     29.74863218	     -5.13115259	      0.51921158	     13.33355569	     -4.95330043	     -8.90432168	    -28.08866945	     -6.38230507	      4.93002106	     12.65058943	    -15.18041318	      6.92844224	     41.65216093	     90.00000001	      0.00000000	      0.00000000	      0.53864958	    -12.39476811	     16.11735348	     29.27695153	     90.00000001	      0.00000000	      0.00000000
      0.09000000	      7.93004677	      3.97899527	     -2.39551234	     -2.70239237	      0.85903908	      0.10587337	     -5.29954446	     -4.88616781	    -26.24115853	     60.59606303	    -18.17224434	      1.05760081	     -9.97055240	     -3.06653314	     -8.81021451	     13.42644406	     10.99885819	     -1.52882127	     28.74720579	     -5.12539435	      0.50173339	     13.82432472	     -4.66466241	     -8.81021451	    -28.23073535	     -5.92807561	      4.83323650	     12.31240764	    -15.24339550	      7.27146424	     40.58145018	     90.00000001	      0.00000000	      0.00000000	      1.55984369	    -12.24590818	     14.78329032	     30.05128621	     90.00000001	      0.00000000	      0.00000000
      0.10000000	      8.03141542	      3.78251120	     -2.14067411	     -2.68996086	      0.86228519	      0.10532895	     -3.33083511	     -4.84918686	    -26.52007547	     62.53114165	    -18.54766563	      1.09137431	     -8.69341847	     -4.58450774	     -8.77782726	     11.68425479	     10.91009293	     -0.99540122	     27.64594488	     -5.06983189	      0.48251276	     14.49992262	     -4.16173069	     -8.77782726	    -28.35928812	     -5.46075256	      4.61917556	     11.84535005	    -15.24098145	      7.44898498	     39.67707393	     90.00000001	      0.00000000	      0.00000000	      2.56588801	    -12.36452881	     14.38643220	     30.90127085	     90.00000001	      0.00000000	      0.00000000
      0.11000000	      8.03739149	      3.57163499	     -1.93715748	     -2.67815305	      0.86547275	      0.10465800	     -1.15797847	     -4.74206782	    -25.37176102	     64.46283467	    -17.60503788	      1.12508871	     -8.28707221	     -8.24302505	     -8.67197212	     10.00084577	     10.88098057	     -0.07866459	     26.38455344	     -5.01223996	      0.46049733	     14.64185933	     -4.49030052	     -8.67197212	    -28.46920379	     -4.96087223	      4.38515308	     11.47547444	    -15.32375629	      7.73519531	     38.81028395	     90.00000001	      0.00000000	      0.00000000	      3.59476345	    -12.30761929	     13.20511786	     31.81558932	     90.00000001	      0.00000000	      0.00000000
